# xmcd
#
# Track frame offsets: 
#        150
#        16474
#        31468
#        48830
#        63996
#        79157
#        98622
#        114819
#        131326
#        152355
#        169996
#
# Disc length: 2519 seconds
#
# Revision: 0
# Processed by: cddbd v1.5.2PL0 Copyright (c) Steve Scherf et al.
# Submitted via: ExactAudioCopyFreeDBPlugin 1.0
#
DISCID=7909d50b
DTITLE=Push - PUSH
DYEAR=2011
DGENRE=Soul
TTITLE0=Celebration
TTITLE1=I'm Not Alone
TTITLE2=I'm A Dreamer
TTITLE3=It Ain't Never Been This Funky
TTITLE4=You Turn Me On (1st Version)
TTITLE5=The Jealous Type (1st Version)
TTITLE6=Reach
TTITLE7=You're Nasty
TTITLE8=We Have So Much
TTITLE9=You Turn Me On (2nd Version)
TTITLE10=The Jealous Type (2nd Version)
EXTD=
EXTT0=
EXTT1=
EXTT2=
EXTT3=
EXTT4=
EXTT5=
EXTT6=
EXTT7=
EXTT8=
EXTT9=
EXTT10=
PLAYORDER=
